<svg width="38" height="39" viewBox="0 0 38 39" fill="none" xmlns="http://www.w3.org/2000/svg">
<rect y="0.5" width="38" height="38" rx="19" fill="#0F0622" fill-opacity="0.7"/>
<path d="M26.875 26.25C26.8751 26.7427 26.7673 27.2293 26.5593 27.6758C26.3512 28.1223 26.048 28.5179 25.6708 28.8347C25.2936 29.1516 24.8516 29.382 24.3759 29.5099C23.9002 29.6377 23.4022 29.6598 22.917 29.5748C22.4318 29.4897 21.9711 29.2994 21.5673 29.0173C21.1635 28.7352 20.8263 28.3681 20.5794 27.9418C20.3325 27.5156 20.182 27.0404 20.1383 26.5497C20.0946 26.0591 20.1589 25.5648 20.3266 25.1016L15.3578 21.9094C14.8833 22.3749 14.2818 22.6899 13.6289 22.8149C12.976 22.9398 12.3008 22.8692 11.6879 22.6119C11.075 22.3545 10.5517 21.9219 10.1837 21.3683C9.81575 20.8147 9.61945 20.1648 9.61945 19.5C9.61945 18.8353 9.81575 18.1854 10.1837 17.6318C10.5517 17.0782 11.075 16.6456 11.6879 16.3882C12.3008 16.1309 12.976 16.0603 13.6289 16.1852C14.2818 16.3102 14.8833 16.6252 15.3578 17.0907L20.3266 13.9032C20.042 13.1213 20.0556 12.2621 20.3645 11.4896C20.6735 10.7171 21.2563 10.0855 22.0015 9.71557C22.7467 9.34562 23.6021 9.26321 24.4043 9.48409C25.2064 9.70498 25.899 10.2137 26.3498 10.913C26.8006 11.6123 26.9779 12.4531 26.8479 13.2749C26.7178 14.0967 26.2896 14.8417 25.6449 15.3677C25.0003 15.8937 24.1844 16.1637 23.3533 16.1261C22.5221 16.0885 21.734 15.7461 21.1394 15.1641L16.1706 18.3563C16.4392 19.0984 16.4392 19.9111 16.1706 20.6532L21.1394 23.8454C21.6138 23.3811 22.2146 23.067 22.8665 22.9424C23.5185 22.8178 24.1928 22.8882 24.805 23.1449C25.4171 23.4016 25.94 23.833 26.3082 24.3853C26.6764 24.9376 26.8736 25.5863 26.875 26.25Z" fill="#F7F7F7"/>
</svg>
