<svg width="29" height="28" viewBox="0 0 29 28" fill="none" xmlns="http://www.w3.org/2000/svg">
<path d="M14.5 18.375C16.9162 18.375 18.875 16.4162 18.875 14C18.875 11.5838 16.9162 9.625 14.5 9.625C12.0838 9.625 10.125 11.5838 10.125 14C10.125 16.4162 12.0838 18.375 14.5 18.375Z" stroke="#F7F7F7" stroke-width="1.75" stroke-linecap="round" stroke-linejoin="round"/>
<path d="M5.03146 19.4786C4.54799 18.6459 4.1776 17.7524 3.93005 16.8219L5.76537 14.525C5.74459 14.1738 5.74459 13.8218 5.76537 13.4706L3.93115 11.1738C4.17827 10.2431 4.54791 9.3493 5.03037 8.51594L7.95177 8.18781C8.18506 7.92498 8.43378 7.67626 8.69662 7.44297L9.02474 4.52266C9.85691 4.04249 10.7492 3.67506 11.6782 3.43L13.9751 5.26531C14.3262 5.24453 14.6783 5.24453 15.0294 5.26531L17.3263 3.43109C18.257 3.67822 19.1508 4.04785 19.9841 4.53031L20.3122 7.45172C20.5751 7.68501 20.8238 7.93373 21.0571 8.19656L23.9774 8.52469C24.4609 9.35743 24.8313 10.2509 25.0788 11.1814L23.2435 13.4783C23.2643 13.8294 23.2643 14.1815 23.2435 14.5327L25.0777 16.8295C24.8323 17.76 24.4645 18.6537 23.984 19.4873L21.0626 19.8155C20.8293 20.0783 20.5805 20.327 20.3177 20.5603L19.9896 23.4806C19.1568 23.9641 18.2634 24.3345 17.3329 24.582L15.036 22.7467C14.6848 22.7675 14.3328 22.7675 13.9816 22.7467L11.6847 24.5809C10.7543 24.3355 9.86058 23.9677 9.02693 23.4872L8.6988 20.5658C8.43597 20.3325 8.18725 20.0838 7.95396 19.8209L5.03146 19.4786Z" stroke="#F7F7F7" stroke-width="1.75" stroke-linecap="round" stroke-linejoin="round"/>
</svg>
