<svg width="51" height="52" viewBox="0 0 51 52" fill="none" xmlns="http://www.w3.org/2000/svg">
<path d="M24.457 29.5736L25.1787 47.3392C25.2488 49.0635 26.667 50.4253 28.3927 50.4253C30.1184 50.4253 31.5367 49.0635 31.6067 47.3392L32.4096 27.5766C32.5113 25.0725 33.5807 22.7056 35.3925 20.9741L48.8847 8.08014C50.0948 6.92377 50.2817 5.05815 49.3252 3.68467C48.2465 2.13581 46.1118 1.76383 44.5728 2.85659L30.4744 12.8673C30.2974 12.993 30.0856 13.0605 29.8684 13.0605C28.9041 13.0605 28.4528 11.867 29.1759 11.229L32.3391 8.43806C33.6378 7.29225 33.8733 5.35584 32.8872 3.93212C31.7244 2.2533 29.358 1.9633 27.8243 3.31167L17.5881 12.3105C16.078 13.6381 14.136 14.3703 12.1253 14.3703H5.47111C3.47206 14.3703 1.8515 15.9909 1.8515 17.99C1.8515 19.989 3.47206 21.6096 5.47111 21.6096H16.1629C17.1007 21.6096 18.0318 21.7685 18.9166 22.0796C22.1237 23.2074 24.319 26.1767 24.457 29.5736ZM9.71115 11.8423C10.707 13.0679 11.9805 13.7507 13.4937 13.7507C15.0068 13.7507 16.2804 13.0679 17.2762 11.8423C18.268 10.6216 18.7505 9.1599 18.7505 7.5115C18.7505 5.86311 18.268 4.40137 17.2762 3.18071C16.2804 1.9551 15.0068 1.27228 13.4937 1.27228C11.9805 1.27228 10.707 1.9551 9.71115 3.18071C8.71936 4.40137 8.23681 5.86311 8.23681 7.5115C8.23681 9.1599 8.71936 10.6216 9.71115 11.8423Z" stroke="#F7F7F7" stroke-width="2"/>
</svg>
