<svg width="26" height="26" viewBox="0 0 26 26" fill="none" xmlns="http://www.w3.org/2000/svg">
<path d="M21.9375 7.3125H18.3747C18.4143 7.27898 18.4549 7.24648 18.4935 7.21094C18.802 6.9369 19.0506 6.60216 19.2237 6.22766C19.3969 5.85316 19.491 5.44696 19.5 5.03445C19.5133 4.58318 19.4343 4.13395 19.2678 3.71433C19.1012 3.29471 18.8506 2.91356 18.5314 2.59428C18.2123 2.27499 17.8312 2.02432 17.4116 1.85764C16.992 1.69096 16.5428 1.61179 16.0916 1.625C15.6789 1.63389 15.2725 1.72787 14.8978 1.90105C14.5231 2.07424 14.1882 2.3229 13.9141 2.63148C13.5347 3.07114 13.2263 3.56732 13 4.10211C12.7737 3.56732 12.4653 3.07114 12.0859 2.63148C11.8118 2.3229 11.4769 2.07424 11.1022 1.90105C10.7275 1.72787 10.3211 1.63389 9.90844 1.625C9.45716 1.61179 9.00795 1.69096 8.58838 1.85764C8.16881 2.02432 7.78774 2.27499 7.46855 2.59428C7.14936 2.91356 6.8988 3.29471 6.73225 3.71433C6.56569 4.13395 6.48666 4.58318 6.5 5.03445C6.50903 5.44696 6.60307 5.85316 6.77625 6.22766C6.94944 6.60216 7.19803 6.9369 7.50648 7.21094C7.54508 7.24445 7.5857 7.27695 7.62531 7.3125H4.0625C3.63152 7.3125 3.2182 7.4837 2.91345 7.78845C2.6087 8.0932 2.4375 8.50652 2.4375 8.9375V12.1875C2.4375 12.6185 2.6087 13.0318 2.91345 13.3365C3.2182 13.6413 3.63152 13.8125 4.0625 13.8125V20.3125C4.0625 20.7435 4.2337 21.1568 4.53845 21.4615C4.8432 21.7663 5.25652 21.9375 5.6875 21.9375H11.7812C11.889 21.9375 11.9923 21.8947 12.0685 21.8185C12.1447 21.7423 12.1875 21.639 12.1875 21.5312V12.1875H4.0625V8.9375H12.1875V12.1875H13.8125V8.9375H21.9375V12.1875H13.8125V21.5312C13.8125 21.639 13.8553 21.7423 13.9315 21.8185C14.0077 21.8947 14.111 21.9375 14.2187 21.9375H20.3125C20.7435 21.9375 21.1568 21.7663 21.4615 21.4615C21.7663 21.1568 21.9375 20.7435 21.9375 20.3125V13.8125C22.3685 13.8125 22.7818 13.6413 23.0865 13.3365C23.3913 13.0318 23.5625 12.6185 23.5625 12.1875V8.9375C23.5625 8.50652 23.3913 8.0932 23.0865 7.78845C22.7818 7.4837 22.3685 7.3125 21.9375 7.3125ZM8.58305 5.99219C8.44098 5.86354 8.32705 5.70691 8.2484 5.53213C8.16975 5.35736 8.12808 5.16821 8.12602 4.97656C8.12088 4.75201 8.16061 4.52869 8.24288 4.31969C8.32515 4.11069 8.44831 3.92021 8.60513 3.75941C8.76196 3.59861 8.9493 3.47073 9.15618 3.38326C9.36306 3.29579 9.58531 3.25048 9.80992 3.25H9.85969C10.0513 3.25207 10.2405 3.29373 10.4153 3.37238C10.59 3.45103 10.7467 3.56496 10.8753 3.70703C11.7274 4.66984 12.028 6.2664 12.1337 7.25359C11.1424 7.14898 9.54687 6.84836 8.58305 5.99219ZM17.419 5.99219C16.4552 6.84531 14.8555 7.14594 13.8643 7.25156C13.9852 6.18414 14.3203 4.62109 15.1328 3.70805C15.2615 3.56598 15.4181 3.45205 15.5929 3.3734C15.7676 3.29475 15.9568 3.25308 16.1484 3.25101H16.1982C16.4228 3.25242 16.6449 3.29864 16.8514 3.38698C17.058 3.47531 17.2448 3.60398 17.401 3.76544C17.5571 3.92691 17.6795 4.11792 17.7609 4.32728C17.8423 4.53664 17.8811 4.76014 17.875 4.98469C17.8717 5.17503 17.8293 5.36267 17.7505 5.53597C17.6717 5.70928 17.5582 5.86456 17.417 5.99219H17.419Z" fill="url(#paint0_linear_1128_901)"/>
<defs>
<linearGradient id="paint0_linear_1128_901" x1="19" y1="-0.499468" x2="0.748678" y2="12.5786" gradientUnits="userSpaceOnUse">
<stop stop-color="#FFC607"/>
<stop offset="0.522513" stop-color="#FBCF3A"/>
<stop offset="1" stop-color="#BD9306"/>
</linearGradient>
</defs>
</svg>
