<svg width="33" height="30" viewBox="0 0 33 30" fill="none" xmlns="http://www.w3.org/2000/svg">
<path d="M6.38966 21.7661L6.38812 21.7667C5.68511 22.0479 5.11963 22.5185 4.70411 23.1591C4.2961 23.7881 4.08333 24.4774 4.08333 25.2131C4.08333 26.243 4.45242 27.1428 5.178 27.8684C5.90359 28.594 6.80336 28.9631 7.83333 28.9631H10.6667C11.5411 28.9631 12.25 28.2542 12.25 27.3797C12.25 26.4066 12.5775 25.6129 13.2387 24.9517C13.8998 24.2906 14.6935 23.9631 15.6667 23.9631H20.6667C20.7152 23.9631 20.736 23.9704 20.7392 23.9716C20.7394 23.9717 20.7396 23.9717 20.7397 23.9718C20.7399 23.972 20.7402 23.9722 20.7405 23.9726C20.7408 23.9729 20.7411 23.9731 20.7413 23.9733C20.7413 23.9735 20.7414 23.9736 20.7415 23.9738C20.7427 23.9771 20.75 23.9979 20.75 24.0464C20.75 24.0949 20.7427 24.1157 20.7415 24.1189C20.7414 24.1191 20.7413 24.1193 20.7413 24.1194C20.7411 24.1197 20.7408 24.1199 20.7405 24.1202C20.7402 24.1205 20.7399 24.1208 20.7397 24.121C20.7396 24.121 20.7394 24.1211 20.7392 24.1212C20.736 24.1224 20.7152 24.1297 20.6667 24.1297H15.6667C14.7634 24.1297 13.9697 24.4327 13.3447 25.0577C12.7196 25.6828 12.4167 26.4765 12.4167 27.3797C12.4167 28.2542 13.1255 28.9631 14 28.9631H25.1667C26.1966 28.9631 27.0964 28.594 27.822 27.8684C28.5476 27.1428 28.9167 26.243 28.9167 25.2131C28.9167 24.4774 28.7039 23.7881 28.2959 23.1591C27.8804 22.5185 27.3149 22.0479 26.6119 21.7667L26.6103 21.7661L20.8096 19.4607C20.673 19.4064 20.5833 19.2742 20.5833 19.1272C20.5833 18.9796 20.672 18.8279 20.8897 18.7384C21.1137 18.6464 21.3507 18.6782 21.5052 18.803C22.5055 19.6109 23.5856 20.2868 24.7443 20.8297C26.3223 21.569 27.9954 22.0285 29.7598 22.2089C31.1696 22.353 32.25 21.1906 32.25 19.8797C32.25 18.5228 31.1587 17.5241 29.9356 17.3633C28.7698 17.2099 27.6901 16.8803 26.692 16.3768C25.2478 15.6482 23.9288 14.6024 22.7368 13.2258L20.4899 10.5627L20.4899 10.5627L20.4861 10.5583C20.0835 10.0886 19.6043 9.72649 19.0506 9.48427C18.5084 9.24707 17.9335 9.12972 17.3333 9.12972H15.6667C15.0664 9.12972 14.4916 9.24707 13.9494 9.48427C13.3957 9.72649 12.9165 10.0886 12.5139 10.5583L12.5139 10.5583L12.5101 10.5627L10.2632 13.2258C9.0712 14.6024 7.75225 15.6482 6.30801 16.3768C5.30988 16.8803 4.23022 17.2099 3.06439 17.3633C1.84133 17.5241 0.75 18.5228 0.75 19.8797C0.75 21.1906 1.8304 22.353 3.24019 22.2089C5.00455 22.0285 6.67771 21.569 8.2557 20.8297C9.41445 20.2868 10.4945 19.6109 11.4948 18.803C11.6493 18.6782 11.8863 18.6464 12.1103 18.7384C12.328 18.8279 12.4167 18.9796 12.4167 19.1272C12.4167 19.2742 12.327 19.4064 12.1904 19.4607L6.38966 21.7661ZM13.6155 7.76422C14.4078 8.55653 15.3828 8.96305 16.5 8.96305C17.6172 8.96305 18.5922 8.55653 19.3845 7.76422C20.1768 6.97191 20.5833 5.99688 20.5833 4.87972C20.5833 3.76256 20.1768 2.78753 19.3845 1.99522C18.5922 1.20292 17.6172 0.796387 16.5 0.796387C15.3828 0.796387 14.4078 1.20292 13.6155 1.99522C12.8232 2.78753 12.4167 3.76256 12.4167 4.87972C12.4167 5.99688 12.8232 6.97191 13.6155 7.76422Z" stroke="#F7F7F7" stroke-width="1.5"/>
</svg>
