<svg width="70" height="75" viewBox="0 0 70 75" fill="none" xmlns="http://www.w3.org/2000/svg">
<circle cx="34.5464" cy="34.5472" r="34.5472" fill="#005149"/>
<path d="M34.4584 19.1466C39.3717 19.1466 43.7938 21.3388 44.8521 26.6301H41.1103C40.1654 23.4553 37.0662 22.397 34.3072 22.397C32.1906 22.397 28.4867 23.3419 28.4867 26.4033C28.4867 28.8222 30.4143 30.0317 32.9465 30.5986L36.1213 31.3167C40.3166 32.2238 45.3434 33.8112 45.3434 39.3293C45.3434 44.6962 40.3544 47.5309 34.9119 47.5309C28.4489 47.5309 24.367 44.0159 23.6489 38.5356H27.4284C28.1465 42.3151 30.7922 44.2805 34.9875 44.2805C39.0316 44.2805 41.3749 42.3529 41.3749 39.6695C41.3749 36.797 38.9182 35.5876 35.4788 34.8317L32.0772 34.1136C28.3355 33.2821 24.556 31.2033 24.556 26.6301C24.556 21.4144 30.0363 19.1466 34.4584 19.1466Z" fill="white"/>
<circle cx="56.6936" cy="62.5984" r="10.6299" fill="#282234"/>
<path d="M61.2893 59.528C61.198 59.6174 61.0521 59.6174 60.9608 59.528L59.4393 58.0385C59.3452 57.9464 59.3452 57.795 59.4393 57.7029L59.8773 57.2742C60.0417 57.1132 60.2472 57.0351 60.4939 57.0398C60.7406 57.0445 60.9461 57.1274 61.1105 57.2884L61.7344 57.8991C61.8989 58.0601 61.9811 58.259 61.9811 58.4957C61.9811 58.7324 61.8989 58.9313 61.7344 59.0922L61.2893 59.528ZM51.7811 67.4441C51.6554 67.4441 51.5514 67.4038 51.4692 67.3233C51.3869 67.2428 51.3458 67.1411 51.3458 67.018V65.7964C51.3458 65.7396 51.3555 65.6875 51.3748 65.6402C51.3942 65.5928 51.428 65.5455 51.4764 65.4981L58.4942 58.6281C58.5855 58.5387 58.7315 58.5387 58.8227 58.6281L60.3443 60.1176C60.4383 60.2097 60.4383 60.3611 60.3443 60.4531L53.3336 67.3162C53.2852 67.3636 53.2369 67.3967 53.1885 67.4157C53.1401 67.4346 53.0869 67.4441 53.0289 67.4441H51.7811Z" fill="#9D77EE"/>
</svg>
