<svg width="21" height="21" viewBox="0 0 21 21" fill="none" xmlns="http://www.w3.org/2000/svg">
<circle cx="10.0945" cy="10.5" r="10" fill="#FFC607"/>
<path d="M6.12366 13.7948C6.13561 13.8468 6.15763 13.8958 6.18839 13.9388C6.21916 13.9818 6.25803 14.0179 6.30268 14.045C6.34732 14.0721 6.39682 14.0896 6.44818 14.0965C6.49954 14.1033 6.55171 14.0993 6.60155 14.0848C8.88659 13.4334 11.2999 13.4331 13.585 14.0841C13.6348 14.0986 13.687 14.1026 13.7383 14.0957C13.7897 14.0889 13.8391 14.0714 13.8838 14.0444C13.9284 14.0173 13.9673 13.9812 13.998 13.9382C14.0288 13.8952 14.0508 13.8462 14.0628 13.7942L15.2841 8.43557C15.3004 8.36383 15.2971 8.2888 15.2744 8.21894C15.2516 8.14908 15.2105 8.08715 15.1555 8.04013C15.1005 7.99312 15.034 7.96288 14.9632 7.95283C14.8925 7.94278 14.8205 7.95331 14.7553 7.98324L12.3315 9.09546C12.244 9.13562 12.1451 9.1405 12.0543 9.10914C11.9635 9.07777 11.8873 9.01244 11.8408 8.926L10.4296 6.30327C10.3964 6.24157 10.3478 6.19016 10.2889 6.15437C10.2299 6.11858 10.1628 6.0997 10.0945 6.0997C10.0261 6.0997 9.95899 6.11858 9.90008 6.15437C9.84116 6.19016 9.79258 6.24157 9.75939 6.30327L8.34817 8.926C8.30165 9.01244 8.22549 9.07777 8.13466 9.10914C8.04383 9.1405 7.94492 9.13562 7.8574 9.09546L5.43329 7.98308C5.36808 7.95315 5.29607 7.94262 5.22537 7.95266C5.15467 7.9627 5.08809 7.99292 5.03313 8.03991C4.97816 8.08691 4.937 8.14881 4.91426 8.21865C4.89152 8.2885 4.88812 8.36351 4.90444 8.43524L6.12366 13.7948Z" fill="#0F0622"/>
</svg>
